<svg className="top-svg" aria-hidden="true" focusable="false" viewBox="0 0 24 24"><path d="M4 21Q3.175 21 2.588 20.413Q2 19.825 2 19V5Q2 4.175 2.588 3.587Q3.175 3 4 3H20Q20.825 3 21.413 3.587Q22 4.175 22 5V19Q22 19.825 21.413 20.413Q20.825 21 20 21ZM4 19H20Q20 19 20 19Q20 19 20 19V5Q20 5 20 5Q20 5 20 5H4Q4 5 4 5Q4 5 4 5V19Q4 19 4 19Q4 19 4 19ZM12 9H18V7H12ZM12 13H18V11H12ZM6 13H10V7H6ZM6 17H18V15H6ZM4 19Q4 19 4 19Q4 19 4 19V5Q4 5 4 5Q4 5 4 5Q4 5 4 5Q4 5 4 5V19Q4 19 4 19Q4 19 4 19Z"></path></svg>